<svg xmlns="http://www.w3.org/2000/svg" version="1.1" xmlns:xlink="http://www.w3.org/1999/xlink" xmlns:svgjs="http://svgjs.dev/svgjs" width="2000" height="2250" viewBox="0 0 2000 2250"><g transform="matrix(1,0,0,1,0.0022017081398644223,0)"><svg viewBox="0 0 320 360" data-background-color="#ffffff" preserveAspectRatio="xMidYMid meet" height="2250" width="2000" xmlns="http://www.w3.org/2000/svg" xmlns:xlink="http://www.w3.org/1999/xlink"><g id="tight-bounds" transform="matrix(1,0,0,1,0.00010353528136874957,0)"><svg viewBox="0 0 320 360" height="360" width="320"><g><svg></svg></g><g><svg viewBox="0 0 320 360" height="360" width="320"><g><path xmlns="http://www.w3.org/2000/svg" d="M307.925 179.999l6.575-11.387c11.322-19.607 4.604-44.679-15.003-56.001l-11.387-6.575v-13.151c0-22.639-18.354-40.994-40.994-40.994h-13.151l-6.575-11.387c-11.322-19.607-36.393-26.325-56.001-15.003l-11.39 6.572-11.387-6.576c-19.607-11.318-44.679-4.6-56.001 15.007l-6.575 11.387h-13.151c-22.639 0-40.994 18.354-40.994 40.994v13.151l-11.387 6.575c-19.607 11.322-26.325 36.393-15.003 56.001l6.572 11.387-6.576 11.387c-11.318 19.607-4.6 44.679 15.007 56l11.387 6.576v13.15c0 22.639 18.354 40.994 40.994 40.994h13.151l6.575 11.387c11.322 19.607 36.393 26.325 56.001 15.003l11.387-6.571 11.387 6.575c19.607 11.322 44.679 4.604 56-15.003l6.576-11.387h13.15c22.639 0 40.994-18.354 40.994-40.994v-13.151l11.387-6.575c19.607-11.322 26.325-36.393 15.003-56.001zM297.702 115.716c8.655 4.996 14.842 13.062 17.428 22.713 2.586 9.65 1.261 19.734-3.735 28.384l-5.538 9.596-17.747-30.74v-35.494zM251.155 271.155l-57.791 33.365h-66.731l-57.791-33.365-33.365-57.791v-66.731l33.365-57.791 57.791-33.365h66.731l57.791 33.365 33.365 57.791v66.731zM284.517 220.539v31.351l-27.151 15.676zM247.566 277.366l-15.676 27.151h-31.351zM187.15 308.106l-27.151 15.676-27.151-15.676zM119.459 304.517h-31.352l-15.676-27.151zM62.632 267.566l-27.151-15.676v-31.351zM31.891 207.15l-15.675-27.151 15.675-27.151zM35.481 139.459v-31.352l27.151-15.676zM72.431 82.632l15.676-27.151h31.352zM132.848 51.891l27.151-15.675 27.151 15.675zM200.539 55.481h31.351l15.676 27.151zM257.366 92.431l27.151 15.676v31.352zM288.106 152.848l15.676 27.151-15.676 27.151zM247.112 55.481c9.992 0 19.384 3.889 26.452 10.956 7.063 7.063 10.956 16.46 10.957 26.452v11.079l-30.741-17.747-17.747-30.74zM173.18 28.606c8.655-4.996 18.735-6.322 28.385-3.735 9.65 2.586 17.716 8.777 22.712 17.428l5.538 9.596h-35.494l-30.741-17.747zM95.716 42.295c4.996-8.655 13.062-14.842 22.713-17.428 9.65-2.586 19.734-1.261 28.384 3.736l9.596 5.537-30.74 17.747h-35.494zM35.481 92.885c0-9.992 3.889-19.384 10.956-26.452 7.063-7.063 16.46-10.956 26.452-10.956h11.079l-17.747 30.74-30.74 17.747zM8.606 166.817c-4.996-8.655-6.322-18.735-3.735-28.385 2.586-9.65 8.777-17.716 17.428-22.712l9.596-5.538v35.495l-17.747 30.74zM22.295 244.281c-8.655-4.996-14.842-13.062-17.428-22.712-2.586-9.65-1.261-19.734 3.736-28.385l5.537-9.596 17.747 30.74v35.495zM72.885 304.517c-9.992 0-19.384-3.889-26.452-10.957-7.063-7.063-10.956-16.46-10.956-26.451v-11.08l30.74 17.747 17.747 30.741zM146.817 331.391c-8.655 4.996-18.735 6.322-28.385 3.735-9.65-2.586-17.716-8.777-22.712-17.428l-5.538-9.596h35.495l30.74 17.747zM224.281 317.702c-4.996 8.655-13.062 14.842-22.712 17.428-9.65 2.586-19.734 1.261-28.385-3.735l-9.596-5.538 30.74-17.747h35.495zM284.517 267.112c0 9.992-3.889 19.384-10.957 26.452-7.063 7.063-16.46 10.956-26.451 10.957h-11.08l17.747-30.741 30.741-17.747zM315.13 221.565c-2.586 9.65-8.777 17.716-17.428 22.712l-9.596 5.538v-35.494l17.747-30.741 5.538 9.596c4.996 8.658 6.326 18.739 3.739 28.389z" fill="#ffffff" fill-rule="nonzero" stroke="none" stroke-width="1" stroke-linecap="butt" stroke-linejoin="miter" stroke-miterlimit="10" stroke-dasharray="" stroke-dashoffset="0" font-family="none" font-weight="none" font-size="none" text-anchor="none" style="mix-blend-mode: normal" data-fill-palette-color="tertiary"></path></g><g transform="matrix(1,0,0,1,64.00000000000001,103.3829071814965)"><svg viewBox="0 0 191.99999999999997 153.234185637007" height="153.234185637007" width="191.99999999999997"><g><svg viewBox="0 0 191.99999999999997 153.234185637007" height="153.234185637007" width="191.99999999999997"><g><svg viewBox="0 0 191.99999999999997 153.234185637007" height="153.234185637007" width="191.99999999999997"><g><svg viewBox="0 0 191.99999999999997 153.234185637007" height="153.234185637007" width="191.99999999999997"><g><svg viewBox="0 0 191.99999999999997 153.234185637007" height="153.234185637007" width="191.99999999999997"><g><svg viewBox="0 0 191.99999999999997 114.31401238041644" height="114.31401238041644" width="191.99999999999997"><g transform="matrix(1,0,0,1,0,0)"><svg width="191.99999999999997" viewBox="2 -38.04999923706055 88.83999633789062 52.900001525878906" height="114.31401238041644" data-palette-color="#f5f8fb"><path d="M21.85-7.95L21.85-7.95Q21.85-4.35 24.9-4.35L24.9-4.35Q25-4.35 25.05-4.35L25.05-4.35Q26.45-4.35 27.55-5.85 28.65-7.35 29.2-9.6L29.2-9.6Q30.4-14.2 30.4-17.95L30.4-17.95 29.95-17.95Q27.85-17.95 26.7-18.9L26.7-18.9Q25.5-20 25.5-21.55 25.5-23.1 26.45-24.05L26.45-24.05Q27.6-25.1 29.3-25.1L29.3-25.1Q33-25.1 34.3-21.3L34.3-21.3Q37.8-22.15 41.7-23.65L41.7-23.65 41.7-20.8Q38-19.4 34.8-18.65L34.8-18.65Q34.85-18.25 34.85-17.5L34.85-17.5Q34.65-7.15 30-2.5L30-2.5Q27.25 0.25 22.88 0.25 18.5 0.25 16.35-3.45L16.35-3.45Q13.9 0.3 8.85 0.3L8.85 0.3Q5.85 0.3 3.93-1.83 2-3.95 2-6.85L2-6.85Q2-7.35 2.05-8.05L2.05-8.05Q3.1-16.75 3.8-23.45L3.8-23.45Q5.6-24.05 6.95-24.05L6.95-24.05Q10.5-24.05 10.5-21.6L10.5-21.6Q10.5-20.65 9.75-15.05L9.75-15.05Q8.8-8 8.8-7.13 8.8-6.25 9.47-5.4 10.15-4.55 11.43-4.55 12.7-4.55 13.7-5.7 14.7-6.85 15.15-8.5L15.15-8.5 16.9-23.45Q18.5-24.05 20.3-24.05L20.3-24.05Q23.55-24.05 23.55-21.6L23.55-21.6Q23.55-20.7 22.85-15.75L22.85-15.75Q21.85-8.75 21.85-7.95ZM28.35-21.55L28.35-21.55Q28.35-20.7 29.8-20.7L29.8-20.7Q29.95-20.7 30.1-20.7L30.1-20.7Q29.75-22.05 29.05-22.05 28.35-22.05 28.35-21.55ZM41.4-36.83Q42.55-38 44.2-38 45.85-38 47.02-36.83 48.2-35.65 48.2-34 48.2-32.35 47.02-31.2 45.85-30.05 44.2-30.05 42.55-30.05 41.4-31.2 40.25-32.35 40.25-34 40.25-35.65 41.4-36.83ZM39.35-22.15Q39.85-23.05 41.25-23.53 42.65-24 44.02-24 45.4-24 46.45-23.65L46.45-23.65Q44.5-8.6 44.5-8.45L44.5-8.45Q44.25-7.45 44.25-6.78 44.25-6.1 44.35-5.6L44.35-5.6Q44.55-4.3 46.17-4.3 47.8-4.3 49.17-6.43 50.55-8.55 51.25-11.25L51.25-11.25Q51.6-11.05 52.35-10.05 53.1-9.05 53.25-8.55L53.25-8.55Q52.25-4.55 49.85-2.1L49.85-2.1Q47.45 0.35 44.1 0.35 40.75 0.35 39.12-1.3 37.5-2.95 37.5-5.55L37.5-5.55Q37.5-6.1 37.55-6.7L37.55-6.7 39.35-22.15ZM55.87 0.35Q52.8 0.35 51.05-1.38 49.3-3.1 49.3-6.1L49.3-6.1Q49.3-6.9 52-29.85L52-29.85Q52.7-35.75 55.75-37.3L55.75-37.3Q57.15-38.05 59.1-38.05L59.1-38.05Q65.7-38.05 65.7-31.95L65.7-31.95Q65.7-31.45 65.65-30.9L65.65-30.9Q65.15-24.2 57.25-17.25L57.25-17.25Q57-14.8 56.7-12.5L56.7-12.5Q56.1-7.35 56.1-6.8L56.1-6.8Q56.1-4.2 58.35-4.2L58.35-4.2Q60.8-4.2 62.92-7.03 65.05-9.85 66.2-14.25L66.2-14.25Q66.65-14.1 67.45-13.43 68.25-12.75 68.55-12.25L68.55-12.25Q67.75-8.1 64.95-4.3L64.95-4.3Q63.55-2.35 61.4-1.1L61.4-1.1Q58.95 0.35 55.87 0.35ZM57.95-23.75L57.8-22.25Q62.4-27.3 62.4-31.3L62.4-31.3Q62.4-33.7 60.6-33.7L60.6-33.7Q59.45-33.6 59.07-32.2 58.7-30.8 58.37-27.65 58.05-24.5 57.95-23.75L57.95-23.75ZM73.04 14.85L73.04 14.85Q70.19 14.85 68.14 13.13 66.09 11.4 66.09 8.1L66.09 8.1Q66.09 4.05 70.19 0.2L70.19 0.2Q67.29-0.05 65.54-1.7 63.79-3.35 63.79-6.35L63.79-6.35Q63.79-7.75 64.14-10.55 64.49-13.35 64.89-16.6 65.29-19.85 65.74-23.5L65.74-23.5Q67.29-24.05 68.59-24.05 69.89-24.05 70.54-23.95 71.19-23.85 71.79-23.2 72.39-22.55 72.39-21.35L72.39-21.35 70.74-8.6Q70.64-7.8 70.64-7.5L70.64-7.5Q70.64-4.55 73.34-4.55L73.34-4.55Q75.79-4.55 77.34-6.85L77.34-6.85Q77.49-8 78.09-13.48 78.69-18.95 79.09-22L79.09-22Q79.54-22.95 80.97-23.5 82.39-24.05 83.29-24.05L83.29-24.05Q84.89-24.05 86.19-23.65L86.19-23.65 83.84-5.2Q89.69-4.15 90.84 2.85L90.84 2.85Q90.64 3.8 88.94 5.85L88.94 5.85Q87.94-0.4 83.44-1.75L83.44-1.75 82.64 4.5Q82.09 9 79.79 11.93 77.49 14.85 73.04 14.85ZM69.99 7.15Q69.99 8.8 70.79 9.6 71.59 10.4 72.92 10.4 74.24 10.4 74.94 9.3 75.64 8.2 76.04 4.9L76.04 4.9 76.69-0.6Q70.14 2.8 69.99 7.15L69.99 7.15Z" opacity="1" transform="matrix(1,0,0,1,0,0)" fill="#ffffff" class="undefined-text-0" data-fill-palette-color="primary" id="text-0"></path></svg></g></svg></g><g transform="matrix(1,0,0,1,0,141.30080716713564)"><svg viewBox="0 0 191.99999999999997 11.93337846987136" height="11.93337846987136" width="191.99999999999997"><g transform="matrix(1,0,0,1,0,0)"><svg width="191.99999999999997" viewBox="2.299999952316284 -36.20000076293945 738.4199829101562 45.900001525878906" height="11.93337846987136" data-palette-color="#f3f8fb"><path d="M28-32.3L28-32.3 28-27.25Q25.8-28.45 24.03-28.93 22.25-29.4 19.5-29.4L19.5-29.4Q14.45-29.4 11.08-25.98 7.7-22.55 7.7-16.9L7.7-16.9Q7.7-11.15 11.05-7.75 14.4-4.35 19.9-4.35L19.9-4.35Q24.75-4.35 28.05-6.85L28.05-6.85 28.05-1.65Q24.95 0.4 19.45 0.4L19.45 0.4Q11.9 0.4 7.1-4.3 2.3-9 2.3-16.9L2.3-16.9Q2.3-24.55 7.13-29.35 11.95-34.15 19.35-34.15L19.35-34.15Q24.75-34.15 28-32.3ZM33.7-25.35L38.6-25.35 38.6-20.9Q40.45-25.6 45.25-25.6L45.25-25.6Q45.95-25.6 46.8-25.45L46.8-25.45 46.8-20.65Q45.75-21.1 44.45-21.1L44.45-21.1Q41.9-21.1 40.25-18.85 38.6-16.6 38.6-13.5L38.6-13.5 38.6 0 33.7 0 33.7-25.35ZM64-8.45L64-11.3 60.2-11.3Q57.4-11.3 55.97-10.2 54.55-9.1 54.55-7.4L54.55-7.4Q54.55-5.65 55.65-4.65 56.75-3.65 58.84-3.65L58.84-3.65Q61.25-3.65 62.62-4.98 64-6.3 64-8.45L64-8.45ZM51.24-19.3L51.24-19.3 51.24-24.05Q54.2-25.75 59.05-25.75L59.05-25.75Q69-25.75 69-16.1L69-16.1 69 0 64.14 0 64.14-3Q62.2 0.2 57.3 0.2L57.3 0.2Q53.7 0.2 51.52-1.88 49.34-3.95 49.34-7.15L49.34-7.15Q49.34-10.8 52.09-12.83 54.84-14.85 59.8-14.85L59.8-14.85 64-14.85 64-16.3Q64-18.9 62.75-20.23 61.5-21.55 58.59-21.55L58.59-21.55Q54.55-21.55 51.24-19.3ZM88.64-35.4L88.64-35.4 88.64-31.1Q87.49-31.6 86.24-31.6L86.24-31.6Q82.59-31.6 82.59-27.25L82.59-27.25 82.59-25.35 87.94-25.35 87.94-21.55 82.59-21.55 82.59 0 77.69 0 77.69-21.55 73.64-21.55 73.64-25.35 77.69-25.35 77.69-27.3Q77.69-31.25 79.82-33.52 81.94-35.8 85.79-35.8L85.79-35.8Q87.19-35.8 88.64-35.4ZM105.29-21.55L98.64-21.55 98.64-7.6Q98.64-3.95 102.14-3.95L102.14-3.95Q104.19-3.95 105.59-5.05L105.59-5.05 105.59-0.65Q103.94 0.25 101.54 0.25L101.54 0.25Q93.69 0.25 93.69-7.7L93.69-7.7 93.69-21.55 89.74-21.55 89.74-25.35 93.69-25.35 93.69-31.55 98.64-31.55 98.64-25.35 105.29-25.35 105.29-21.55ZM117.99-0.55L117.99-0.55 107.89-25.35 113.34-25.35 116.49-17.1 120.44-6.4Q120.89-7.9 124.04-17.1L124.04-17.1 126.89-25.35 132.09-25.35 122.94-0.7Q119.29 9.05 111.79 9.05L111.79 9.05Q110.44 9.05 109.49 8.8L109.49 8.8 109.49 4.6Q110.29 4.8 111.19 4.8L111.19 4.8Q116.04 4.8 117.99-0.55ZM162.93-24.5L162.93-24.5 162.93-20.05Q160.48-21.5 156.63-21.5L156.63-21.5Q154.88-21.5 153.86-20.7 152.83-19.9 152.83-18.6L152.83-18.6Q152.83-18.25 152.91-17.93 152.98-17.6 153.18-17.28 153.38-16.95 153.56-16.73 153.73-16.5 154.13-16.25 154.53-16 154.76-15.83 154.98-15.65 155.51-15.4 156.03-15.15 156.28-15.03 156.53-14.9 157.16-14.63 157.78-14.35 158.03-14.25L158.03-14.25Q160.98-12.95 162.66-11.33 164.33-9.7 164.33-7L164.33-7Q164.33-3.6 161.93-1.68 159.53 0.25 155.43 0.25L155.43 0.25Q150.93 0.25 147.93-1.25L147.93-1.25 147.93-5.9Q151.43-3.75 155.18-3.75L155.18-3.75Q157.13-3.75 158.21-4.55 159.28-5.35 159.28-6.65L159.28-6.65Q159.28-7.75 158.43-8.63 157.58-9.5 156.71-9.93 155.83-10.35 153.73-11.25L153.73-11.25Q147.78-13.7 147.78-18.45L147.78-18.45Q147.78-21.8 150.28-23.7 152.78-25.6 156.53-25.6L156.53-25.6Q160.63-25.6 162.93-24.5ZM180.03 0.45L180.03 0.45Q174.43 0.45 171.23-3.2 168.03-6.85 168.03-12.45L168.03-12.45Q168.03-18.15 171.33-21.93 174.63-25.7 180.03-25.7L180.03-25.7Q185.83-25.7 188.98-22.03 192.13-18.35 192.13-12.65 192.13-6.95 188.91-3.25 185.68 0.45 180.03 0.45ZM179.98-21.55L179.98-21.55Q176.73-21.55 174.93-18.98 173.13-16.4 173.13-12.6L173.13-12.6Q173.13-8.85 174.98-6.28 176.83-3.7 180.03-3.7L180.03-3.7Q183.43-3.7 185.21-6.2 186.98-8.7 186.98-12.55L186.98-12.55Q186.98-16.5 185.28-19.03 183.58-21.55 179.98-21.55ZM202.78 0L197.83 0 197.83-35.35 202.78-35.35 202.78 0ZM225.63-11.55L225.63-25.35 230.53-25.35 230.53 0 225.63 0 225.63-4.35Q223.63 0.3 217.73 0.3L217.73 0.3Q213.98 0.3 211.78-1.93 209.58-4.15 209.58-8.05L209.58-8.05 209.58-25.35 214.53-25.35 214.53-9.25Q214.53-6.65 215.8-5.28 217.08-3.9 219.33-3.9L219.33-3.9Q222.18-3.9 223.9-5.9 225.63-7.9 225.63-11.55L225.63-11.55ZM250.42-21.55L243.77-21.55 243.77-7.6Q243.77-3.95 247.27-3.95L247.27-3.95Q249.32-3.95 250.72-5.05L250.72-5.05 250.72-0.65Q249.07 0.25 246.67 0.25L246.67 0.25Q238.82 0.25 238.82-7.7L238.82-7.7 238.82-21.55 234.87-21.55 234.87-25.35 238.82-25.35 238.82-31.55 243.77-31.55 243.77-25.35 250.42-25.35 250.42-21.55ZM261.27 0L256.32 0 256.32-25.35 261.27-25.35 261.27 0ZM256.6-30.93Q255.72-31.8 255.72-33.1 255.72-34.4 256.6-35.3 257.47-36.2 258.77-36.2 260.07-36.2 260.97-35.3 261.87-34.4 261.87-33.1L261.87-33.1Q261.87-31.85 260.97-30.95 260.07-30.05 258.77-30.05 257.47-30.05 256.6-30.93ZM278.97 0.45L278.97 0.45Q273.37 0.45 270.17-3.2 266.97-6.85 266.97-12.45L266.97-12.45Q266.97-18.15 270.27-21.93 273.57-25.7 278.97-25.7L278.97-25.7Q284.77-25.7 287.92-22.03 291.07-18.35 291.07-12.65 291.07-6.95 287.84-3.25 284.62 0.45 278.97 0.45ZM278.92-21.55L278.92-21.55Q275.67-21.55 273.87-18.98 272.07-16.4 272.07-12.6L272.07-12.6Q272.07-8.85 273.92-6.28 275.77-3.7 278.97-3.7L278.97-3.7Q282.37-3.7 284.14-6.2 285.92-8.7 285.92-12.55L285.92-12.55Q285.92-16.5 284.22-19.03 282.52-21.55 278.92-21.55ZM296.56-25.35L301.47-25.35 301.47-21Q303.72-25.7 309.37-25.7L309.37-25.7Q313.12-25.7 315.31-23.4 317.51-21.1 317.51-17.15L317.51-17.15 317.51 0 312.62 0 312.62-16Q312.62-18.65 311.29-20.05 309.97-21.45 307.76-21.45L307.76-21.45Q305.17-21.45 303.31-19.43 301.47-17.4 301.47-13.75L301.47-13.75 301.47 0 296.56 0 296.56-25.35ZM338.56-24.5L338.56-24.5 338.56-20.05Q336.11-21.5 332.26-21.5L332.26-21.5Q330.51-21.5 329.49-20.7 328.46-19.9 328.46-18.6L328.46-18.6Q328.46-18.25 328.54-17.93 328.61-17.6 328.81-17.28 329.01-16.95 329.19-16.73 329.36-16.5 329.76-16.25 330.16-16 330.39-15.83 330.61-15.65 331.14-15.4 331.66-15.15 331.91-15.03 332.16-14.9 332.79-14.63 333.41-14.35 333.66-14.25L333.66-14.25Q336.61-12.95 338.29-11.33 339.96-9.7 339.96-7L339.96-7Q339.96-3.6 337.56-1.68 335.16 0.25 331.06 0.25L331.06 0.25Q326.56 0.25 323.56-1.25L323.56-1.25 323.56-5.9Q327.06-3.75 330.81-3.75L330.81-3.75Q332.76-3.75 333.84-4.55 334.91-5.35 334.91-6.65L334.91-6.65Q334.91-7.75 334.06-8.63 333.21-9.5 332.34-9.93 331.46-10.35 329.36-11.25L329.36-11.25Q323.41-13.7 323.41-18.45L323.41-18.45Q323.41-21.8 325.91-23.7 328.41-25.6 332.16-25.6L332.16-25.6Q336.26-25.6 338.56-24.5ZM370.41-35.4L370.41-35.4 370.41-31.1Q369.26-31.6 368.01-31.6L368.01-31.6Q364.36-31.6 364.36-27.25L364.36-27.25 364.36-25.35 369.71-25.35 369.71-21.55 364.36-21.55 364.36 0 359.46 0 359.46-21.55 355.41-21.55 355.41-25.35 359.46-25.35 359.46-27.3Q359.46-31.25 361.58-33.52 363.71-35.8 367.56-35.8L367.56-35.8Q368.96-35.8 370.41-35.4ZM384.66 0.45L384.66 0.45Q379.06 0.45 375.86-3.2 372.66-6.85 372.66-12.45L372.66-12.45Q372.66-18.15 375.96-21.93 379.25-25.7 384.66-25.7L384.66-25.7Q390.46-25.7 393.61-22.03 396.75-18.35 396.75-12.65 396.75-6.95 393.53-3.25 390.31 0.45 384.66 0.45ZM384.61-21.55L384.61-21.55Q381.36-21.55 379.56-18.98 377.75-16.4 377.75-12.6L377.75-12.6Q377.75-8.85 379.61-6.28 381.46-3.7 384.66-3.7L384.66-3.7Q388.06-3.7 389.83-6.2 391.61-8.7 391.61-12.55L391.61-12.55Q391.61-16.5 389.91-19.03 388.21-21.55 384.61-21.55ZM402.25-25.35L407.15-25.35 407.15-20.9Q409-25.6 413.8-25.6L413.8-25.6Q414.5-25.6 415.35-25.45L415.35-25.45 415.35-20.65Q414.3-21.1 413-21.1L413-21.1Q410.45-21.1 408.8-18.85 407.15-16.6 407.15-13.5L407.15-13.5 407.15 0 402.25 0 402.25-25.35ZM435-14.5L447.25-14.5 447.25-15.4Q447.15-18.25 445.7-19.93 444.25-21.6 441.55-21.6L441.55-21.6Q439.05-21.6 437.25-19.78 435.45-17.95 435-14.5L435-14.5ZM450.4-5.75L450.4-5.75 450.4-1.35Q447.6 0.25 443 0.25L443 0.25Q437.1 0.25 433.6-3.3 430.1-6.85 430.1-12.6L430.1-12.6Q430.1-18.7 433.3-22.18 436.5-25.65 441.45-25.65L441.45-25.65Q446.3-25.65 449.15-22.63 452-19.6 452-13.9L452-13.9Q452-12.35 451.7-10.65L451.7-10.65 435.05-10.65Q435.55-7.35 437.85-5.6 440.15-3.85 443.65-3.85L443.65-3.85Q447.7-3.85 450.4-5.75ZM469.85 0L464.25 0 455.25-25.35 460.4-25.35 463.85-14.65Q465.05-10.95 465.87-8.25 466.69-5.55 466.9-4.7L466.9-4.7 467.1-3.85Q467.55-6.3 470.4-14.65L470.4-14.65 473.94-25.35 479.05-25.35 469.85 0ZM486.94-14.5L499.19-14.5 499.19-15.4Q499.09-18.25 497.64-19.93 496.19-21.6 493.49-21.6L493.49-21.6Q490.99-21.6 489.19-19.78 487.39-17.95 486.94-14.5L486.94-14.5ZM502.34-5.75L502.34-5.75 502.34-1.35Q499.54 0.25 494.94 0.25L494.94 0.25Q489.04 0.25 485.54-3.3 482.04-6.85 482.04-12.6L482.04-12.6Q482.04-18.7 485.24-22.18 488.44-25.65 493.39-25.65L493.39-25.65Q498.24-25.65 501.09-22.63 503.94-19.6 503.94-13.9L503.94-13.9Q503.94-12.35 503.64-10.65L503.64-10.65 486.99-10.65Q487.49-7.35 489.79-5.6 492.09-3.85 495.59-3.85L495.59-3.85Q499.64-3.85 502.34-5.75ZM509.69-25.35L514.59-25.35 514.59-20.9Q516.44-25.6 521.24-25.6L521.24-25.6Q521.94-25.6 522.79-25.45L522.79-25.45 522.79-20.65Q521.74-21.1 520.44-21.1L520.44-21.1Q517.89-21.1 516.24-18.85 514.59-16.6 514.59-13.5L514.59-13.5 514.59 0 509.69 0 509.69-25.35ZM533.64-0.55L533.64-0.55 523.54-25.35 528.99-25.35 532.14-17.1 536.09-6.4Q536.54-7.9 539.69-17.1L539.69-17.1 542.54-25.35 547.74-25.35 538.59-0.7Q534.94 9.05 527.44 9.05L527.44 9.05Q526.09 9.05 525.14 8.8L525.14 8.8 525.14 4.6Q525.94 4.8 526.84 4.8L526.84 4.8Q531.69 4.8 533.64-0.55ZM575.83-3.95L575.83-3.95Q578.78-3.95 580.68-6.28 582.58-8.6 582.58-12.8L582.58-12.8Q582.58-16.75 580.73-19.07 578.88-21.4 576.03-21.4 573.18-21.4 571.11-19.33 569.03-17.25 569.03-12.75L569.03-12.75Q569.03-8.35 571.11-6.15 573.18-3.95 575.83-3.95ZM564.13-25.35L569.03-25.35 569.03-21.45Q571.63-25.7 576.83-25.7L576.83-25.7Q581.83-25.7 584.73-22.08 587.63-18.45 587.63-12.85L587.63-12.85Q587.63-7.1 584.66-3.38 581.68 0.35 576.73 0.35L576.73 0.35Q571.68 0.35 569.03-3.85L569.03-3.85 569.03 9.7 564.13 9.7 564.13-25.35ZM593.13-25.35L598.03-25.35 598.03-20.9Q599.88-25.6 604.68-25.6L604.68-25.6Q605.38-25.6 606.23-25.45L606.23-25.45 606.23-20.65Q605.18-21.1 603.88-21.1L603.88-21.1Q601.33-21.1 599.68-18.85 598.03-16.6 598.03-13.5L598.03-13.5 598.03 0 593.13 0 593.13-25.35ZM620.68 0.45L620.68 0.45Q615.08 0.45 611.88-3.2 608.68-6.85 608.68-12.45L608.68-12.45Q608.68-18.15 611.98-21.93 615.28-25.7 620.68-25.7L620.68-25.7Q626.48-25.7 629.63-22.03 632.78-18.35 632.78-12.65 632.78-6.95 629.55-3.25 626.33 0.45 620.68 0.45ZM620.63-21.55L620.63-21.55Q617.38-21.55 615.58-18.98 613.78-16.4 613.78-12.6L613.78-12.6Q613.78-8.85 615.63-6.28 617.48-3.7 620.68-3.7L620.68-3.7Q624.08-3.7 625.85-6.2 627.63-8.7 627.63-12.55L627.63-12.55Q627.63-16.5 625.93-19.03 624.23-21.55 620.63-21.55ZM650.22-3.95L650.22-3.95Q653.02-3.95 654.92-6.33 656.82-8.7 656.82-12.45L656.82-12.45Q656.82-16.75 654.92-19.07 653.02-21.4 650.07-21.4L650.07-21.4Q647.47-21.4 645.4-19.3 643.32-17.2 643.32-12.85L643.32-12.85Q643.32-8.35 645.32-6.15 647.32-3.95 650.22-3.95ZM638.37-35.35L643.32-35.35 643.32-21.5Q646.02-25.7 650.97-25.7L650.97-25.7Q655.77-25.7 658.82-22.1 661.87-18.5 661.87-12.55L661.87-12.55Q661.87-7.2 658.97-3.43 656.07 0.35 651.02 0.35 645.97 0.35 643.32-3.85L643.32-3.85 643.32 0 638.37 0 638.37-35.35ZM672.52 0L667.57 0 667.57-35.35 672.52-35.35 672.52 0ZM683.12-14.5L695.37-14.5 695.37-15.4Q695.27-18.25 693.82-19.93 692.37-21.6 689.67-21.6L689.67-21.6Q687.17-21.6 685.37-19.78 683.57-17.95 683.12-14.5L683.12-14.5ZM698.52-5.75L698.52-5.75 698.52-1.35Q695.72 0.25 691.12 0.25L691.12 0.25Q685.22 0.25 681.72-3.3 678.22-6.85 678.22-12.6L678.22-12.6Q678.22-18.7 681.42-22.18 684.62-25.65 689.57-25.65L689.57-25.65Q694.42-25.65 697.27-22.63 700.12-19.6 700.12-13.9L700.12-13.9Q700.12-12.35 699.82-10.65L699.82-10.65 683.17-10.65Q683.67-7.35 685.97-5.6 688.27-3.85 691.77-3.85L691.77-3.85Q695.82-3.85 698.52-5.75ZM705.87-25.35L710.77-25.35 710.77-21.3Q712.92-25.7 717.92-25.7L717.92-25.7Q723.62-25.7 725.22-20.8L725.22-20.8Q726.27-23.15 728.27-24.43 730.27-25.7 732.77-25.7L732.77-25.7Q736.67-25.7 738.69-23.4 740.72-21.1 740.72-17.05L740.72-17.05 740.72 0 735.82 0 735.82-16Q735.82-21.45 731.42-21.45L731.42-21.45Q729.22-21.45 727.49-19.5 725.77-17.55 725.77-13.75L725.77-13.75 725.77 0 720.87 0 720.87-16Q720.87-21.45 716.42-21.45L716.42-21.45Q714.27-21.45 712.52-19.5 710.77-17.55 710.77-13.75L710.77-13.75 710.77 0 705.87 0 705.87-25.35Z" opacity="1" transform="matrix(1,0,0,1,0,0)" fill="#ffffff" class="undefined-text-1" data-fill-palette-color="secondary" id="text-1"></path></svg></g></svg></g></svg></g></svg></g><g></g></svg></g></svg></g></svg></g></svg></g><defs></defs></svg><rect width="320" height="360" fill="none" stroke="none" visibility="hidden"></rect></g></svg></g></svg>